<?xml version="1.0" encoding="UTF-8"?>
<svg xmlns="http://www.w3.org/2000/svg" width="100" height="100">
  <defs>
    <!-- Submit -->
    <symbol id="submit" viewBox="0 0 24 24" fill="none" stroke="currentColor" stroke-width="2" stroke-linecap="round" stroke-linejoin="round" aria-hidden="true">
      <path d="M5 12L12 5l7 7"></path>
      <path d="M12 19V5"></path>
    </symbol>
    <!-- Upload -->
    <symbol id="upload" fill="none" viewBox="0 0 16 16">
      <g clip-path="url(#a)">
        <path clip-rule="evenodd" d="M14.5 2.5h-13v6.69l1.47-1.47.22-.22h3.75l.03-.03 3.5-3.5h1.06l2.97 2.97V2.5ZM8 8.56l1.53 1.53.53.53L9 11.68l-.53-.53L6.32 9H3.81l-2.28 2.28-.03.03v1.19a1 1 0 0 0 1 1h11a1 1 0 0 0 1-1V9.06L11 5.56 8.03 8.53 8 8.56Zm-8 2.25v1.69A2.5 2.5 0 0 0 2.5 15h11a2.5 2.5 0 0 0 2.5-2.5V9.56l.56-.56-.53-.53-.03-.03V1H0v9.69l-.06.06.06.06Z" fill="currentColor" fill-rule="evenodd"></path>
      </g>
      <defs>
        <clipPath id="a">
          <path d="M0 0h16v16H0z" fill="currentColor"></path>
        </clipPath>
      </defs>
    </symbol>
    <!-- Loading -->
    <symbol id="loading" xmlns="http://www.w3.org/2000/svg" width="24" height="24" viewBox="0 0 24 24" fill="none" stroke="currentColor" stroke-width="2" stroke-linecap="round" stroke-linejoin="round" class="lucide lucide-loader-circle size-6 animate-spin" aria-hidden="true">
      <path d="M21 12a9 9 0 1 1-6.219-8.56"></path>
    </symbol>
    <!-- Arrow -->
    <symbol id="arrow" width="15" height="15" viewBox="0 0 15 15" fill="none">
      <path d="M3.13523 6.15803C3.3241 5.95657 3.64052 5.94637 3.84197 6.13523L7.5 9.56464L11.158 6.13523C11.3595 5.94637 11.6759 5.95657 11.8648 6.15803C12.0536 6.35949 12.0434 6.67591 11.842 6.86477L7.84197 10.6148C7.64964 10.7951 7.35036 10.7951 7.15803 10.6148L3.15803 6.86477C2.95657 6.67591 2.94637 6.35949 3.13523 6.15803Z" fill="currentColor" fill-rule="evenodd" clip-rule="evenodd"></path>
    </symbol>
    <!-- Swap -->
    <symbol id="swap" strokeLinejoin="round" viewBox="0 0 16 16">
      <path fillRule="evenodd" clipRule="evenodd" d="M8.70711 1.39644C8.31659 1.00592 7.68342 1.00592 7.2929 1.39644L2.21968 6.46966L1.68935 6.99999L2.75001 8.06065L3.28034 7.53032L7.25001 3.56065V14.25V15H8.75001V14.25V3.56065L12.7197 7.53032L13.25 8.06065L14.3107 6.99999L13.7803 6.46966L8.70711 1.39644Z" fill="currentColor" />
    </symbol>
    <!-- Twitter -->
    <symbol id="twitter" xmlns="http://www.w3.org/2000/svg" viewBox="0 0 24 24" aria-hidden="true">
      <g>
        <path fill="currentColor" d="M14.258 10.152L23.176 0h-2.113l-7.747 8.813L7.133 0H0l9.352 13.328L0 23.973h2.113l8.176-9.309 6.531 9.309h7.133zm-2.895 3.293l-.949-1.328L2.875 1.56h3.246l6.086 8.523.945 1.328 7.91 11.078h-3.246zm0 0"></path>
      </g>
    </symbol>
  </defs>
</svg>