<?xml version="1.0" encoding="UTF-8"?>
<svg xmlns="http://www.w3.org/2000/svg" width="100" height="100">
  <defs>
    <!-- Arrow Up -->
    <symbol id="arrow-up" viewBox="0 0 24 24" fill="none" stroke="currentColor" stroke-width="2" stroke-linecap="round" stroke-linejoin="round" aria-hidden="true">
      <path d="M5 12L12 5l7 7"></path>
      <path d="M12 19V5"></path>
    </symbol>
    <!-- Upload -->
    <symbol id="upload" fill="none" viewBox="0 0 16 16">
      <g clip-path="url(#a)">
        <path clip-rule="evenodd" d="M14.5 2.5h-13v6.69l1.47-1.47.22-.22h3.75l.03-.03 3.5-3.5h1.06l2.97 2.97V2.5ZM8 8.56l1.53 1.53.53.53L9 11.68l-.53-.53L6.32 9H3.81l-2.28 2.28-.03.03v1.19a1 1 0 0 0 1 1h11a1 1 0 0 0 1-1V9.06L11 5.56 8.03 8.53 8 8.56Zm-8 2.25v1.69A2.5 2.5 0 0 0 2.5 15h11a2.5 2.5 0 0 0 2.5-2.5V9.56l.56-.56-.53-.53-.03-.03V1H0v9.69l-.06.06.06.06Z" fill="currentColor" fill-rule="evenodd"></path>
      </g>
      <defs>
        <clipPath id="a">
          <path d="M0 0h16v16H0z" fill="currentColor"></path>
        </clipPath>
      </defs>
    </symbol>
    <!-- Close -->
    <symbol id="close" fill="currentColor" viewBox="0 0 256 256">
      <path d="M205.66 194.34a8 8 0 0 1-11.32 11.32L128 139.31l-66.34 66.35a8 8 0 0 1-11.32-11.32L116.69 128 50.34 61.66a8 8 0 0 1 11.32-11.32L128 116.69l66.34-66.35a8 8 0 0 1 11.32 11.32L139.31 128Z"></path>
    </symbol>
    <!-- Cancel -->
    <symbol id="cancel" width="15" height="15" viewBox="0 0 15 15" fill="none">
      <path d="M11.7816 4.03157C12.0062 3.80702 12.0062 3.44295 11.7816 3.2184C11.5571 2.99385 11.193 2.99385 10.9685 3.2184L7.50005 6.68682L4.03164 3.2184C3.80708 2.99385 3.44301 2.99385 3.21846 3.2184C2.99391 3.44295 2.99391 3.80702 3.21846 4.03157L6.68688 7.49999L3.21846 10.9684C2.99391 11.193 2.99391 11.557 3.21846 11.7816C3.44301 12.0061 3.80708 12.0061 4.03164 11.7816L7.50005 8.31316L10.9685 11.7816C11.193 12.0061 11.5571 12.0061 11.7816 11.7816C12.0062 11.557 12.0062 11.193 11.7816 10.9684L8.31322 7.49999L11.7816 4.03157Z" fill="currentColor" fill-rule="evenodd" clip-rule="evenodd"></path>
    </symbol>
    <!-- Arrow -->
    <symbol id="arrow" width="15" height="15" viewBox="0 0 15 15" fill="none">
      <path d="M3.13523 6.15803C3.3241 5.95657 3.64052 5.94637 3.84197 6.13523L7.5 9.56464L11.158 6.13523C11.3595 5.94637 11.6759 5.95657 11.8648 6.15803C12.0536 6.35949 12.0434 6.67591 11.842 6.86477L7.84197 10.6148C7.64964 10.7951 7.35036 10.7951 7.15803 10.6148L3.15803 6.86477C2.95657 6.67591 2.94637 6.35949 3.13523 6.15803Z" fill="currentColor" fill-rule="evenodd" clip-rule="evenodd"></path>
    </symbol>
    <!-- Mint -->
    <symbol id="mint" width="15" height="15" viewBox="0 0 15 15" fill="none">
      <path d="M3.64645 11.3536C3.45118 11.1583 3.45118 10.8417 3.64645 10.6465L10.2929 4L6 4C5.72386 4 5.5 3.77614 5.5 3.5C5.5 3.22386 5.72386 3 6 3L11.5 3C11.6326 3 11.7598 3.05268 11.8536 3.14645C11.9473 3.24022 12 3.36739 12 3.5L12 9.00001C12 9.27615 11.7761 9.50001 11.5 9.50001C11.2239 9.50001 11 9.27615 11 9.00001V4.70711L4.35355 11.3536C4.15829 11.5488 3.84171 11.5488 3.64645 11.3536Z" fill="currentColor" fill-rule="evenodd" clip-rule="evenodd" />
    </symbol>
    <!-- Control -->
    <symbol id="control" fill="none" viewBox="0 0 16 16">
      <path clip-rule="evenodd" d="M10 4.5V6H6V4.5a2 2 0 1 1 4 0ZM4.5 6V4.5a3.5 3.5 0 1 1 7 0V6H14v6.5a2.5 2.5 0 0 1-2.5 2.5h-7A2.5 2.5 0 0 1 2 12.5V6h2.5Zm7 1.5h-8v5a1 1 0 0 0 1 1h7a1 1 0 0 0 1-1v-5h-1Z" fill="currentColor" fill-rule="evenodd"></path>
    </symbol>
    <!-- Revoke -->
    <symbol id="revoke" fill="none" viewBox="0 0 16 16">
      <path clip-rule="evenodd" d="M14 6V4.5a2 2 0 1 0-4 0V6h2v6.5A2.5 2.5 0 0 1 9.5 15h-7A2.5 2.5 0 0 1 0 12.5V6h8.5V4.5a3.5 3.5 0 1 1 7 0V6H14Zm-3.5 1.5h-9v5a1 1 0 0 0 1 1h7a1 1 0 0 0 1-1v-5Z" fill="currentColor" fill-rule="evenodd"></path>
    </symbol>
    <!-- Loading -->
    <symbol id="loading" xmlns="http://www.w3.org/2000/svg" width="24" height="24" viewBox="0 0 24 24" fill="none" stroke="currentColor" stroke-width="2" stroke-linecap="round" stroke-linejoin="round" class="lucide lucide-loader-circle size-6 animate-spin" aria-hidden="true">
      <path d="M21 12a9 9 0 1 1-6.219-8.56"></path>
    </symbol>
    <!-- Cpmm -->
    <symbol id="cpmm" class="size-2.5 translate-y-[0.5px] text-gray-100 transition-all" fill="none" viewBox="0 0 16 16">
      <g clip-path="url(#clip0_1578_1396)">
        <path d="M2.5 0.5V0H3.5V0.5C3.5 1.60457 4.39543 2.5 5.5 2.5H6V3V3.5H5.5C4.39543 3.5 3.5 4.39543 3.5 5.5V6H3H2.5V5.5C2.5 4.39543 1.60457 3.5 0.5 3.5H0V3V2.5H0.5C1.60457 2.5 2.5 1.60457 2.5 0.5Z" fill="currentColor" />
        <path d="M14.5 4.5V5H13.5V4.5C13.5 3.94772 13.0523 3.5 12.5 3.5H12V3V2.5H12.5C13.0523 2.5 13.5 2.05228 13.5 1.5V1H14H14.5V1.5C14.5 2.05228 14.9477 2.5 15.5 2.5H16V3V3.5H15.5C14.9477 3.5 14.5 3.94772 14.5 4.5Z" fill="currentColor" />
        <path d="M8.40706 4.92939L8.5 4H9.5L9.59294 4.92939C9.82973 7.29734 11.7027 9.17027 14.0706 9.40706L15 9.5V10.5L14.0706 10.5929C11.7027 10.8297 9.82973 12.7027 9.59294 15.0706L9.5 16H8.5L8.40706 15.0706C8.17027 12.7027 6.29734 10.8297 3.92939 10.5929L3 10.5V9.5L3.92939 9.40706C6.29734 9.17027 8.17027 7.29734 8.40706 4.92939Z" fill="currentColor" />
      </g>
      <defs>
        <clipPath id="clip0_1578_1396">
          <rect fill="currentColor" height="16" width="16"></rect>
        </clipPath>
      </defs>
    </symbol>
    <!-- Reset -->
    <symbol id="reset" xmlns="http://www.w3.org/2000/svg" viewBox="0 0 24 24" fill="none" stroke="currentColor" stroke-width="2" stroke-linecap="round" stroke-linejoin="round">
      <path d="M3 12a9 9 0 0 1 9-9 9.75 9.75 0 0 1 6.74 2.74L21 8" />
      <path d="M21 3v5h-5" />
      <path d="M21 12a9 9 0 0 1-9 9 9.75 9.75 0 0 1-6.74-2.74L3 16" />
      <path d="M8 16H3v5" />
    </symbol>
    <!-- Twitter -->
    <symbol id="twitter" xmlns="http://www.w3.org/2000/svg" viewBox="0 0 24 24" aria-hidden="true" width="12" height="12">
      <g>
        <path fill="currentColor" d="M14.258 10.152L23.176 0h-2.113l-7.747 8.813L7.133 0H0l9.352 13.328L0 23.973h2.113l8.176-9.309 6.531 9.309h7.133zm-2.895 3.293l-.949-1.328L2.875 1.56h3.246l6.086 8.523.945 1.328 7.91 11.078h-3.246zm0 0"></path>
      </g>
    </symbol>
  </defs>
</svg>
