<?xml version="1.0" encoding="UTF-8"?>
<svg xmlns="http://www.w3.org/2000/svg" xmlns:xlink="http://www.w3.org/1999/xlink" width="0" height="0">
  <defs>
    <!-- Arrow Up -->
    <symbol id="arrow-up" viewBox="0 0 24 24" fill="none" stroke="currentColor" stroke-width="2" stroke-linecap="round" stroke-linejoin="round" aria-hidden="true">
      <path d="M5 12L12 5l7 7"></path>
      <path d="M12 19V5"></path>
    </symbol>
    <!-- Upload -->
    <symbol id="upload" fill="none" viewBox="0 0 16 16">
      <g clip-path="url(#a)">
        <path clip-rule="evenodd" d="M14.5 2.5h-13v6.69l1.47-1.47.22-.22h3.75l.03-.03 3.5-3.5h1.06l2.97 2.97V2.5ZM8 8.56l1.53 1.53.53.53L9 11.68l-.53-.53L6.32 9H3.81l-2.28 2.28-.03.03v1.19a1 1 0 0 0 1 1h11a1 1 0 0 0 1-1V9.06L11 5.56 8.03 8.53 8 8.56Zm-8 2.25v1.69A2.5 2.5 0 0 0 2.5 15h11a2.5 2.5 0 0 0 2.5-2.5V9.56l.56-.56-.53-.53-.03-.03V1H0v9.69l-.06.06.06.06Z" fill="currentColor" fill-rule="evenodd"></path>
      </g>
      <defs>
        <clipPath id="a">
          <path d="M0 0h16v16H0z" fill="currentColor"></path>
        </clipPath>
      </defs>
    </symbol>
    <!-- Close -->
    <symbol id="close" fill="currentColor" viewBox="0 0 256 256">
      <path d="M205.66 194.34a8 8 0 0 1-11.32 11.32L128 139.31l-66.34 66.35a8 8 0 0 1-11.32-11.32L116.69 128 50.34 61.66a8 8 0 0 1 11.32-11.32L128 116.69l66.34-66.35a8 8 0 0 1 11.32 11.32L139.31 128Z"></path>
    </symbol>
    <!-- Mint -->
    <symbol id="mint" width="15" height="15" viewBox="0 0 15 15" fill="none">
      <path d="M3.64645 11.3536C3.45118 11.1583 3.45118 10.8417 3.64645 10.6465L10.2929 4L6 4C5.72386 4 5.5 3.77614 5.5 3.5C5.5 3.22386 5.72386 3 6 3L11.5 3C11.6326 3 11.7598 3.05268 11.8536 3.14645C11.9473 3.24022 12 3.36739 12 3.5L12 9.00001C12 9.27615 11.7761 9.50001 11.5 9.50001C11.2239 9.50001 11 9.27615 11 9.00001V4.70711L4.35355 11.3536C4.15829 11.5488 3.84171 11.5488 3.64645 11.3536Z" fill="currentColor" fill-rule="evenodd" clip-rule="evenodd" />
    </symbol>
    <!-- Control -->
    <symbol id="control" fill="none" viewBox="0 0 16 16" xmlns="http://www.w3.org/2000/svg">
      <path clip-rule="evenodd" d="M10 4.5V6H6V4.5a2 2 0 1 1 4 0ZM4.5 6V4.5a3.5 3.5 0 1 1 7 0V6H14v6.5a2.5 2.5 0 0 1-2.5 2.5h-7A2.5 2.5 0 0 1 2 12.5V6h2.5Zm7 1.5h-8v5a1 1 0 0 0 1 1h7a1 1 0 0 0 1-1v-5h-1Z" fill="currentColor" fill-rule="evenodd"></path>
    </symbol>
    <!-- Revoke -->
    <symbol id="revoke" fill="none" viewBox="0 0 16 16" xmlns="http://www.w3.org/2000/svg">
      <path clip-rule="evenodd" d="M14 6V4.5a2 2 0 1 0-4 0V6h2v6.5A2.5 2.5 0 0 1 9.5 15h-7A2.5 2.5 0 0 1 0 12.5V6h8.5V4.5a3.5 3.5 0 1 1 7 0V6H14Zm-3.5 1.5h-9v5a1 1 0 0 0 1 1h7a1 1 0 0 0 1-1v-5Z" fill="currentColor" fill-rule="evenodd"></path>
    </symbol>
    <!-- Loading -->
    <symbol id="loading" xmlns="http://www.w3.org/2000/svg" width="24" height="24" viewBox="0 0 24 24" fill="none" stroke="currentColor" stroke-width="2" stroke-linecap="round" stroke-linejoin="round" class="lucide lucide-loader-circle size-6 animate-spin" aria-hidden="true">
      <path d="M21 12a9 9 0 1 1-6.219-8.56"></path>
    </symbol>
    <!-- Error -->
    <symbol id="error" xmlns="http://www.w3.org/2000/svg" viewBox="0 0 20 20" fill="currentColor" height="20" width="20">
      <path fill-rule="evenodd" d="M18 10a8 8 0 11-16 0 8 8 0 0116 0zm-8-5a.75.75 0 01.75.75v4.5a.75.75 0 01-1.5 0v-4.5A.75.75 0 0110 5zm0 10a1 1 0 100-2 1 1 0 000 2z" clip-rule="evenodd"></path>
    </symbol>
    <!-- Best for very stable pairs -->
    <svg id="9iFER3bpjf1PTTCQCfTRu17EJgvsxo9pVyA9QWwEuX4x" width="100%" height="31" viewBox="0 0 150 31" fill="none" xmlns="http://www.w3.org/2000/svg">
      <rect width="18.0437" height="82" rx="2" fill="url(#paint0_linear_16230_21872)"></rect>
      <rect x="66.0273" width="18.0437" height="82" rx="2" fill="url(#paint1_linear_16230_21872)"></rect>
      <rect x="22.0078" width="18.0437" height="82" rx="2" fill="url(#paint2_linear_16230_21872)"></rect>
      <rect x="88.0352" width="18.0437" height="82" rx="2" fill="url(#paint3_linear_16230_21872)"></rect>
      <rect x="44.0195" width="18.0437" height="82" rx="2" fill="url(#paint4_linear_16230_21872)"></rect>
      <rect x="110.047" width="18.0437" height="82" rx="2" fill="url(#paint5_linear_16230_21872)"></rect>
      <rect x="131.953" width="18.0437" height="82" rx="2" fill="url(#paint6_linear_16230_21872)"></rect>
      <defs>
        <linearGradient id="paint0_linear_16230_21872" x1="9.02184" y1="0" x2="9.02184" y2="82" gradientUnits="userSpaceOnUse">
          <stop stop-color="#ABC4FF"></stop>
          <stop offset="0.531251" stop-color="#11162E"></stop>
          <stop offset="1" stop-color="#ABC4FF" stop-opacity="0"></stop>
        </linearGradient>
        <linearGradient id="paint1_linear_16230_21872" x1="75.0492" y1="0" x2="75.0492" y2="82" gradientUnits="userSpaceOnUse">
          <stop stop-color="#ABC4FF"></stop>
          <stop offset="0.531251" stop-color="#11162E"></stop>
          <stop offset="1" stop-color="#ABC4FF" stop-opacity="0"></stop>
        </linearGradient>
        <linearGradient id="paint2_linear_16230_21872" x1="31.0297" y1="0" x2="31.0297" y2="82" gradientUnits="userSpaceOnUse">
          <stop stop-color="#ABC4FF"></stop>
          <stop offset="0.531251" stop-color="#11162E"></stop>
          <stop offset="1" stop-color="#ABC4FF" stop-opacity="0"></stop>
        </linearGradient>
        <linearGradient id="paint3_linear_16230_21872" x1="97.057" y1="0" x2="97.057" y2="82" gradientUnits="userSpaceOnUse">
          <stop stop-color="#ABC4FF"></stop>
          <stop offset="0.531251" stop-color="#11162E"></stop>
          <stop offset="1" stop-color="#ABC4FF" stop-opacity="0"></stop>
        </linearGradient>
        <linearGradient id="paint4_linear_16230_21872" x1="53.0414" y1="0" x2="53.0414" y2="82" gradientUnits="userSpaceOnUse">
          <stop stop-color="#ABC4FF"></stop>
          <stop offset="0.531251" stop-color="#11162E"></stop>
          <stop offset="1" stop-color="#ABC4FF" stop-opacity="0"></stop>
        </linearGradient>
        <linearGradient id="paint5_linear_16230_21872" x1="119.069" y1="0" x2="119.069" y2="82" gradientUnits="userSpaceOnUse">
          <stop stop-color="#ABC4FF"></stop>
          <stop offset="0.531251" stop-color="#11162E"></stop>
          <stop offset="1" stop-color="#ABC4FF" stop-opacity="0"></stop>
        </linearGradient>
        <linearGradient id="paint6_linear_16230_21872" x1="140.975" y1="0" x2="140.975" y2="82" gradientUnits="userSpaceOnUse">
          <stop stop-color="#ABC4FF"></stop>
          <stop offset="0.531251" stop-color="#11162E"></stop>
          <stop offset="1" stop-color="#ABC4FF" stop-opacity="0"></stop>
        </linearGradient>
      </defs>
    </svg>
    <!-- Best for tighter ranges -->
    <svg id="3XCQJQryqpDvvZBfGxR7CLAw5dpGJ9aa7kt1jRLdyxuZ" width="100%" height="31" viewBox="0 0 150 31" fill="none" xmlns="http://www.w3.org/2000/svg">
      <rect width="18.0437" height="82" rx="2" fill="url(#paint0_linear_16230_21894)"></rect>
      <rect x="66.0234" y="3" width="18.0437" height="82" rx="2" fill="url(#paint1_linear_16230_21894)"></rect>
      <rect x="22.0078" y="3" width="18.0437" height="82" rx="2" fill="url(#paint2_linear_16230_21894)"></rect>
      <rect x="88.0352" width="18.0437" height="82" rx="2" fill="url(#paint3_linear_16230_21894)"></rect>
      <rect x="44.0195" width="18.0437" height="82" rx="2" fill="url(#paint4_linear_16230_21894)"></rect>
      <rect x="110.047" y="3" width="18.0437" height="82" rx="2" fill="url(#paint5_linear_16230_21894)"></rect>
      <rect x="131.953" width="18.0437" height="82" rx="2" fill="url(#paint6_linear_16230_21894)"></rect>
      <defs>
        <linearGradient id="paint0_linear_16230_21894" x1="9.02184" y1="0" x2="9.02184" y2="82" gradientUnits="userSpaceOnUse">
          <stop stop-color="#ABC4FF"></stop>
          <stop offset="0.531" stop-color="#11162E"></stop>
          <stop offset="1" stop-color="#ABC4FF" stop-opacity="0"></stop>
        </linearGradient>
        <linearGradient id="paint1_linear_16230_21894" x1="75.0453" y1="3" x2="75.0453" y2="85" gradientUnits="userSpaceOnUse">
          <stop stop-color="#ABC4FF"></stop>
          <stop offset="0.531" stop-color="#11162E"></stop>
          <stop offset="1" stop-color="#ABC4FF" stop-opacity="0"></stop>
        </linearGradient>
        <linearGradient id="paint2_linear_16230_21894" x1="31.0297" y1="3" x2="31.0297" y2="85" gradientUnits="userSpaceOnUse">
          <stop stop-color="#ABC4FF"></stop>
          <stop offset="0.531" stop-color="#11162E"></stop>
          <stop offset="1" stop-color="#ABC4FF" stop-opacity="0"></stop>
        </linearGradient>
        <linearGradient id="paint3_linear_16230_21894" x1="97.057" y1="0" x2="97.057" y2="82" gradientUnits="userSpaceOnUse">
          <stop stop-color="#ABC4FF"></stop>
          <stop offset="0.531" stop-color="#11162E"></stop>
          <stop offset="1" stop-color="#ABC4FF" stop-opacity="0"></stop>
        </linearGradient>
        <linearGradient id="paint4_linear_16230_21894" x1="53.0414" y1="0" x2="53.0414" y2="82" gradientUnits="userSpaceOnUse">
          <stop stop-color="#ABC4FF"></stop>
          <stop offset="0.531" stop-color="#11162E"></stop>
          <stop offset="1" stop-color="#ABC4FF" stop-opacity="0"></stop>
        </linearGradient>
        <linearGradient id="paint5_linear_16230_21894" x1="119.069" y1="3" x2="119.069" y2="85" gradientUnits="userSpaceOnUse">
          <stop stop-color="#ABC4FF"></stop>
          <stop offset="0.531" stop-color="#11162E"></stop>
          <stop offset="1" stop-color="#ABC4FF" stop-opacity="0"></stop>
        </linearGradient>
        <linearGradient id="paint6_linear_16230_21894" x1="140.975" y1="0" x2="140.975" y2="82" gradientUnits="userSpaceOnUse">
          <stop stop-color="#ABC4FF"></stop>
          <stop offset="0.531" stop-color="#11162E"></stop>
          <stop offset="1" stop-color="#ABC4FF" stop-opacity="0"></stop>
        </linearGradient>
      </defs>
    </svg>
    <!-- Best for most pairs -->
    <svg id="E64NGkDLLCdQ2yFNPcavaKptrEgmiQaNykUuLC1Qgwyp" width="100%" height="31" viewBox="0 0 150 31" fill="none" xmlns="http://www.w3.org/2000/svg">
      <rect width="18.0437" height="82" rx="2" fill="url(#paint0_linear_16230_21907)"></rect>
      <rect x="66.0234" y="11" width="18.0437" height="82" rx="2" fill="url(#paint1_linear_16230_21907)"></rect>
      <rect x="22.0078" y="6" width="18.0437" height="82" rx="2" fill="url(#paint2_linear_16230_21907)"></rect>
      <rect x="88.0352" width="18.0437" height="82" rx="2" fill="url(#paint3_linear_16230_21907)"></rect>
      <rect x="44.0195" width="18.0437" height="82" rx="2" fill="url(#paint4_linear_16230_21907)"></rect>
      <rect x="110.047" y="6" width="18.0437" height="82" rx="2" fill="url(#paint5_linear_16230_21907)"></rect>
      <rect x="131.953" width="18.0437" height="82" rx="2" fill="url(#paint6_linear_16230_21907)"></rect>
      <defs>
        <linearGradient id="paint0_linear_16230_21907" x1="9.02184" y1="0" x2="9.02184" y2="82" gradientUnits="userSpaceOnUse">
          <stop stop-color="#ABC4FF"></stop>
          <stop offset="0.531251" stop-color="#11162E"></stop>
          <stop offset="1" stop-color="#ABC4FF" stop-opacity="0"></stop>
        </linearGradient>
        <linearGradient id="paint1_linear_16230_21907" x1="75.0453" y1="11" x2="75.0453" y2="93" gradientUnits="userSpaceOnUse">
          <stop stop-color="#ABC4FF"></stop>
          <stop offset="0.531251" stop-color="#11162E"></stop>
          <stop offset="1" stop-color="#ABC4FF" stop-opacity="0"></stop>
        </linearGradient>
        <linearGradient id="paint2_linear_16230_21907" x1="31.0297" y1="6" x2="31.0297" y2="88" gradientUnits="userSpaceOnUse">
          <stop stop-color="#ABC4FF"></stop>
          <stop offset="0.531251" stop-color="#11162E"></stop>
          <stop offset="1" stop-color="#ABC4FF" stop-opacity="0"></stop>
        </linearGradient>
        <linearGradient id="paint3_linear_16230_21907" x1="97.057" y1="0" x2="97.057" y2="82" gradientUnits="userSpaceOnUse">
          <stop stop-color="#ABC4FF"></stop>
          <stop offset="0.531251" stop-color="#11162E"></stop>
          <stop offset="1" stop-color="#ABC4FF" stop-opacity="0"></stop>
        </linearGradient>
        <linearGradient id="paint4_linear_16230_21907" x1="53.0414" y1="0" x2="53.0414" y2="82" gradientUnits="userSpaceOnUse">
          <stop stop-color="#ABC4FF"></stop>
          <stop offset="0.531251" stop-color="#11162E"></stop>
          <stop offset="1" stop-color="#ABC4FF" stop-opacity="0"></stop>
        </linearGradient>
        <linearGradient id="paint5_linear_16230_21907" x1="119.069" y1="6" x2="119.069" y2="88" gradientUnits="userSpaceOnUse">
          <stop stop-color="#ABC4FF"></stop>
          <stop offset="0.531251" stop-color="#11162E"></stop>
          <stop offset="1" stop-color="#ABC4FF" stop-opacity="0"></stop>
        </linearGradient>
        <linearGradient id="paint6_linear_16230_21907" x1="140.975" y1="0" x2="140.975" y2="82" gradientUnits="userSpaceOnUse">
          <stop stop-color="#ABC4FF"></stop>
          <stop offset="0.531251" stop-color="#11162E"></stop>
          <stop offset="1" stop-color="#ABC4FF" stop-opacity="0"></stop>
        </linearGradient>
      </defs>
    </svg>
    <!-- Best for exotic pairs-->
    <svg id="A1BBtTYJd4i3xU8D6Tc2FzU6ZN4oXZWXKZnCxwbHXr8x" width="100%" height="31" viewBox="0 0 150 31" fill="none" xmlns="http://www.w3.org/2000/svg">
      <rect width="18.0437" height="82" rx="2" fill="url(#paint0_linear_16230_21920)"></rect>
      <rect x="66.0234" y="27" width="18.0437" height="82" rx="2" fill="url(#paint1_linear_16230_21920)"></rect>
      <rect x="22.0078" y="20" width="18.0437" height="82" rx="2" fill="url(#paint2_linear_16230_21920)"></rect>
      <rect x="88.0352" width="18.0437" height="82" rx="2" fill="url(#paint3_linear_16230_21920)"></rect>
      <rect x="44.0156" y="6" width="18.0437" height="82" rx="2" fill="url(#paint4_linear_16230_21920)"></rect>
      <rect x="110.047" y="22" width="18.0437" height="82" rx="2" fill="url(#paint5_linear_16230_21920)"></rect>
      <rect x="131.953" y="2" width="18.0437" height="82" rx="2" fill="url(#paint6_linear_16230_21920)"></rect>
      <defs>
        <linearGradient id="paint0_linear_16230_21920" x1="9.02184" y1="0" x2="9.02184" y2="82" gradientUnits="userSpaceOnUse">
          <stop stop-color="#ABC4FF"></stop>
          <stop offset="0.531251" stop-color="#11162E"></stop>
          <stop offset="1" stop-color="#ABC4FF" stop-opacity="0"></stop>
        </linearGradient>
        <linearGradient id="paint1_linear_16230_21920" x1="75.0453" y1="27" x2="75.0453" y2="109" gradientUnits="userSpaceOnUse">
          <stop stop-color="#ABC4FF"></stop>
          <stop offset="0.531251" stop-color="#11162E"></stop>
          <stop offset="1" stop-color="#ABC4FF" stop-opacity="0"></stop>
        </linearGradient>
        <linearGradient id="paint2_linear_16230_21920" x1="31.0297" y1="20" x2="31.0297" y2="102" gradientUnits="userSpaceOnUse">
          <stop stop-color="#ABC4FF"></stop>
          <stop offset="0.531251" stop-color="#11162E"></stop>
          <stop offset="1" stop-color="#ABC4FF" stop-opacity="0"></stop>
        </linearGradient>
        <linearGradient id="paint3_linear_16230_21920" x1="97.057" y1="0" x2="97.057" y2="82" gradientUnits="userSpaceOnUse">
          <stop stop-color="#ABC4FF"></stop>
          <stop offset="0.531251" stop-color="#11162E"></stop>
          <stop offset="1" stop-color="#ABC4FF" stop-opacity="0"></stop>
        </linearGradient>
        <linearGradient id="paint4_linear_16230_21920" x1="53.0375" y1="6" x2="53.0375" y2="88" gradientUnits="userSpaceOnUse">
          <stop stop-color="#ABC4FF"></stop>
          <stop offset="0.531251" stop-color="#11162E"></stop>
          <stop offset="1" stop-color="#ABC4FF" stop-opacity="0"></stop>
        </linearGradient>
        <linearGradient id="paint5_linear_16230_21920" x1="119.069" y1="22" x2="119.069" y2="104" gradientUnits="userSpaceOnUse">
          <stop stop-color="#ABC4FF"></stop>
          <stop offset="0.531251" stop-color="#11162E"></stop>
          <stop offset="1" stop-color="#ABC4FF" stop-opacity="0"></stop>
        </linearGradient>
        <linearGradient id="paint6_linear_16230_21920" x1="140.975" y1="2" x2="140.975" y2="84" gradientUnits="userSpaceOnUse">
          <stop stop-color="#ABC4FF"></stop>
          <stop offset="0.531251" stop-color="#11162E"></stop>
          <stop offset="1" stop-color="#ABC4FF" stop-opacity="0"></stop>
        </linearGradient>
      </defs>
    </svg>
  </defs>
</svg>